<svg width="118" height="106" viewBox="0 0 118 106" fill="none" xmlns="http://www.w3.org/2000/svg">
<path d="M58.7699 1.80874C58.9142 1.73397 59.0858 1.73397 59.2301 1.80874L59.9178 0.481875L59.2301 1.80874L108.326 27.2541C108.491 27.34 108.595 27.5112 108.595 27.698V78.2297C108.595 78.4165 108.491 78.5877 108.326 78.6736L59.2301 104.119C59.0858 104.194 58.9142 104.194 58.7699 104.119L9.67443 78.6736L8.9842 80.0054L9.67442 78.6736C9.5086 78.5877 9.4045 78.4165 9.4045 78.2297V27.698C9.4045 27.5112 9.5086 27.34 9.67443 27.2541L58.7699 1.80874L58.0822 0.481876L58.7699 1.80874Z" stroke="#4F89FD" stroke-width="3"/>
<g clip-path="url(#clip0_412_11)">
<path d="M28 73.0746C28 77.1161 31.6947 80.3916 36.2522 80.3916H83.7475C88.3058 80.3916 92 77.1156 92 73.0746V30.9619C92 26.9202 88.3052 23.6447 83.7477 23.6447H36.2525C31.6942 23.6447 28 26.9207 28 30.9617V73.0744V73.0746Z" fill="#563D7C"/>
<path d="M54.5396 48.7459V40.7097H62.5173C63.2773 40.7097 64.0098 40.7658 64.7153 40.8782C65.4208 40.9904 66.0451 41.1908 66.5878 41.4796C67.1303 41.7684 67.5646 42.1694 67.8903 42.6826C68.2158 43.196 68.3788 43.8537 68.3788 44.6554C68.3788 46.0992 67.8903 47.1419 66.9133 47.7834C65.9366 48.4251 64.6883 48.7459 63.1686 48.7459H54.5396ZM46.0188 34.8389V69.1974H64.7968C66.5336 69.1974 68.2251 69.005 69.8713 68.62C71.5176 68.2349 72.9828 67.6415 74.2673 66.8395C75.5516 66.0375 76.5738 65.0028 77.3336 63.7357C78.0936 62.4684 78.4733 60.9686 78.4733 59.2363C78.4733 57.0868 77.8853 55.2503 76.7096 53.7265C75.5336 52.2026 73.7516 51.1359 71.3636 50.5263C73.1003 49.7886 74.4121 48.8421 75.2986 47.6872C76.1848 46.5323 76.6281 45.0888 76.6281 43.3562C76.6281 41.7522 76.3296 40.4049 75.7326 39.3141C75.1356 38.2235 74.2943 37.3493 73.2088 36.6916C72.1236 36.0339 70.8211 35.5606 69.3013 35.272C67.7818 34.9832 66.0993 34.8389 64.2541 34.8389H46.0188ZM54.5396 63.3265V53.8948H63.8198C65.6651 53.8948 67.1486 54.2716 68.2703 55.0257C69.3918 55.7796 69.9528 57.0387 69.9528 58.8032C69.9528 59.7016 69.7808 60.4393 69.4371 61.0167C69.0933 61.5942 68.6321 62.0515 68.0531 62.3882C67.4743 62.7251 66.8048 62.9656 66.0451 63.1102C65.2851 63.2543 64.4893 63.3265 63.6571 63.3265H54.5396Z" fill="white"/>
</g>
<defs>
<clipPath id="clip0_412_11">
<rect width="64" height="56.747" fill="white" transform="translate(28 23.6447)"/>
</clipPath>
</defs>
</svg>
