<svg width="250" height="186" viewBox="0 0 250 186" fill="none" xmlns="http://www.w3.org/2000/svg">
<g clip-path="url(#clip0_16_555)">
<path d="M215.751 180.078L163.514 180.273C149.656 175.598 138.302 159.363 138.23 135.021C138.216 131.354 138.463 127.692 138.968 124.069L181.042 113.458L213.5 105.273C215.892 107.677 218.12 110.279 220.167 113.055L189.13 131.452L174.489 140.131L190.941 133.759L225.09 120.535C227.219 124.19 229.117 128.008 230.768 131.963L220.465 143.916L232.12 135.35C232.17 135.482 232.22 135.613 232.269 135.745C239.656 155.43 230.491 180.024 215.751 180.078Z" fill="#F2F2F2"/>
<path d="M207.166 99.7639C199.267 102.311 189.555 105.528 179.57 108.873C165.132 113.71 150.124 118.814 139.197 122.546L139.204 122.502C139.608 119.884 140.558 117.41 141.975 115.282C150.069 103.468 160.376 95.2154 171.847 92.1506H171.848C175.074 91.2869 178.377 90.8445 181.693 90.8321C190.82 90.7981 199.464 94.0113 207.166 99.7639Z" fill="#F2F2F2"/>
<path d="M57.6344 143.275L48.603 173.639L46.3856 181.099C45.318 182.909 44.0456 184.557 42.6002 186H42.3883C31.0095 186 20.6768 185.343 13.0629 184.276L14.1226 175.156L16.397 155.596L19.3049 130.546C21.0239 129.288 22.824 128.176 24.69 127.218L27.2538 153.199L28.464 165.455L28.8149 152.331L29.5419 125.092C31.8346 124.259 34.1792 123.62 36.5565 123.178L40.3646 132.925L38.5642 122.851C38.6417 122.84 38.7192 122.828 38.7967 122.817C50.3578 121.254 60.8067 132.603 57.6344 143.275Z" fill="#F2F2F2"/>
<path d="M15.1435 134.071C14.7151 140.275 14.2342 147.916 13.7556 155.783C13.3545 162.396 12.958 169.165 12.6002 175.366C12.4224 178.458 12.2538 181.411 12.1011 184.133C10.8067 183.941 9.59655 183.734 8.48215 183.519C7.38275 181.327 6.44304 179.04 5.67221 176.678C3.71232 170.674 2.96255 164.378 3.62117 158.159V158.157C3.88597 155.649 4.37929 153.178 5.09336 150.784C7.04047 144.298 10.5129 138.523 15.1435 134.071Z" fill="#F2F2F2"/>
<path d="M84.7767 179.786C84.7767 183.209 65.9116 185.982 42.6003 186H42.3883C31.0096 186 20.6768 185.343 13.0629 184.276C12.737 184.227 12.4157 184.181 12.1012 184.133C10.8067 183.941 9.59663 183.733 8.48222 183.519C3.15634 182.477 0 181.185 0 179.786C0 178.653 2.06472 177.594 5.67229 176.678C7.57748 176.194 9.91112 175.754 12.6003 175.366C13.0948 175.291 13.6023 175.221 14.1226 175.156C21.6226 174.171 31.5292 173.572 42.3883 173.572C44.4986 173.572 46.5747 173.595 48.603 173.639C69.0656 174.079 84.7767 176.663 84.7767 179.786Z" fill="#3F3D56"/>
<path d="M34.1678 125.388L35.2329 134.713C35.2329 134.713 35.6589 137.822 36.085 139.495C36.085 139.495 35.6589 148.343 39.0671 154.56L41.1972 159.103L41.6232 165.798L46.9485 166.515L45.8835 156.472C45.8835 156.472 45.4575 151.69 45.8835 149.777C46.3095 147.864 43.7534 139.017 43.7534 139.017C43.7534 139.017 47.1615 126.583 44.6054 123.475C42.0493 120.366 34.1678 125.388 34.1678 125.388Z" fill="#A0616A"/>
<path d="M43.5404 163.885C43.5404 163.885 41.1972 163.885 40.9842 164.603C40.7712 165.32 37.363 171.776 37.363 171.776C37.363 171.776 34.3809 177.037 38.6411 177.276C42.9013 177.515 44.1794 175.363 44.1794 175.363C44.1794 175.363 48.0136 168.428 48.2266 167.233C48.4396 166.037 46.6261 163.475 46.6261 163.475C46.6261 163.475 44.1794 165.32 43.5404 163.885Z" fill="#2F2E41"/>
<path d="M46.5225 46.7192C50.5224 46.7192 53.7649 43.0793 53.7649 38.5893C53.7649 34.0993 50.5224 30.4595 46.5225 30.4595C42.5227 30.4595 39.2802 34.0993 39.2802 38.5893C39.2802 43.0793 42.5227 46.7192 46.5225 46.7192Z" fill="#A0616A"/>
<path d="M40.6646 41.1001C40.6646 41.1001 40.6646 49.9473 37.8955 50.6647C35.1263 51.382 41.7297 59.5119 45.3509 58.5554C48.9721 57.599 50.4632 51.1429 50.4632 51.1429C50.4632 51.1429 47.268 46.5997 48.5461 44.2086C49.8241 41.8174 40.6646 41.1001 40.6646 41.1001Z" fill="#A0616A"/>
<path d="M43.7534 53.4147C42.7367 53.3789 41.7423 53.0706 40.8533 52.5156C39.9643 51.9605 39.2065 51.1748 38.6432 50.224C38.6432 50.224 35.659 50.7844 35.233 51.0235C34.807 51.2626 27.3516 53.8929 25.6475 59.3925L32.4638 69.1962C32.4638 69.1962 30.9727 83.0648 32.4638 89.2818C33.3517 93.0055 33.1272 96.9533 31.8248 100.52C31.8248 100.52 31.1858 100.759 32.2508 101.237C33.3159 101.716 57.8122 96.2161 58.2382 94.7814C58.6642 93.3467 57.8122 93.3467 58.4512 92.6294C59.0902 91.912 60.7943 87.608 59.0902 86.1733C57.3861 84.7386 56.3211 68.9571 56.3211 68.9571L60.7943 56.284C60.7943 56.284 52.6189 48.9496 49.6772 49.867C49.6772 49.867 49.0787 53.4147 43.7534 53.4147Z" fill="#D0CDE1"/>
<path d="M46.5225 120.605C46.5225 120.605 46.0965 131.126 46.9485 135.191C47.8006 139.256 47.8006 140.93 47.8006 140.93C47.8006 140.93 46.5225 147.864 47.1616 154.321C47.8006 160.777 46.416 171.183 46.416 171.183L51.6348 172.971L54.83 154.799C54.83 154.799 57.3861 143.56 55.895 138.3C55.895 138.3 56.7471 122.279 57.3861 120.605C58.0251 118.932 46.5225 120.605 46.5225 120.605Z" fill="#A0616A"/>
<path d="M40.8067 40.0373C40.9027 39.2747 41.1058 38.4428 41.685 38.0301C42.2864 37.6017 43.0627 37.7774 43.773 37.8358C44.4834 37.8941 45.3538 37.6946 45.5873 36.9393C45.7329 36.4683 45.5756 35.9055 45.8027 35.4771C46.1642 34.7953 47.2677 34.8731 47.4581 34.1091C47.5184 33.8671 47.4598 33.597 47.5468 33.3655C47.6642 33.0531 47.9938 32.9286 48.2879 32.8522C49.3636 32.5728 50.4687 32.4635 51.5713 32.5274C51.6792 32.5491 51.7904 32.5244 51.8828 32.4581C51.9315 32.404 51.9662 32.3361 51.9834 32.2616C52.2328 31.4244 51.9686 30.4744 51.4723 29.7896C50.9452 29.1301 50.2952 28.6088 49.5686 28.2626C47.9596 27.3867 46.2156 26.8664 44.4315 26.7302C43.0728 26.6343 41.6465 26.8004 40.4892 27.6052C40.1462 27.8487 39.8279 28.1336 39.54 28.4547C38.281 29.8719 37.4602 31.705 37.1981 33.6847C36.9439 35.6597 37.1407 37.6748 37.7702 39.541C38.1379 40.6645 38.7179 41.8248 39.6152 42.517C40.0962 42.8881 40.5109 43.2306 40.7106 42.6006C40.9225 41.9325 40.7134 40.7777 40.8067 40.0373Z" fill="#2F2E41"/>
<path d="M32.8898 99.0854C32.8898 99.0854 29.6946 103.868 30.3336 107.215C30.9727 110.563 33.3158 116.062 33.3158 116.062C33.3158 116.062 32.0377 126.823 34.1679 126.823C36.298 126.823 45.4575 126.344 45.6705 125.149C45.8835 123.953 45.0314 111.998 45.0314 111.998C45.0314 111.998 46.0965 122.519 46.7355 122.519C47.3746 122.519 58.4511 123.714 58.8772 122.997C59.3032 122.279 60.1552 103.868 60.1552 103.868C60.1552 103.868 61.317 95.1843 57.6475 94.0263C53.9779 92.8684 32.8898 99.0854 32.8898 99.0854Z" fill="#2F2E41"/>
<path d="M49.9307 171.059C49.9307 171.059 46.0965 168.667 45.8835 170.58C45.6705 172.493 43.3273 179.428 43.3273 179.428C43.3273 179.428 40.9842 184.927 46.0965 185.166C51.2087 185.405 52.4868 182.775 52.4868 181.58C52.4868 180.384 51.9139 172.182 51.9139 172.182L49.9307 171.059Z" fill="#2F2E41"/>
<path d="M63.1374 69.196L64.2025 79.7171C64.2025 79.7171 65.4805 85.4558 64.6285 87.8469C63.7764 90.2381 60.5813 101.237 60.5813 101.237C60.5813 101.237 59.7292 95.2595 57.5991 94.5421L58.8772 80.9126C58.8772 80.9126 55.8275 72.4075 56.5003 71.28C57.1731 70.1525 63.1374 69.196 63.1374 69.196Z" fill="#A0616A"/>
<path d="M25.2214 69.9133L25.6475 79.4779C25.6475 79.4779 24.1564 87.8469 27.1385 96.6941L27.5646 100.52L30.3337 106.498C30.3337 106.498 30.9727 100.759 32.2508 100.759C32.2508 100.759 30.9727 96.9332 31.3988 94.7812C31.8248 92.6292 31.1858 81.1517 31.1858 81.1517L32.2508 71.8667L25.2214 69.9133Z" fill="#A0616A"/>
<path d="M58.4512 56.0447H60.7943C60.7943 56.0447 66.3326 70.3915 64.2025 70.6306C62.0724 70.8697 55.256 72.7826 55.043 71.8262C54.83 70.8697 58.4512 56.0447 58.4512 56.0447Z" fill="#D0CDE1"/>
<path d="M27.5645 57.2402L25.6474 59.3923C25.6474 59.3923 23.0913 70.1524 25.0084 71.348C26.9255 72.5435 34.1679 73.9782 34.5939 73.0218C35.0199 72.0653 27.5645 57.2402 27.5645 57.2402Z" fill="#D0CDE1"/>
<path d="M180.283 7.45204V173.275C180.281 175.25 179.581 177.144 178.336 178.54C177.091 179.937 175.404 180.721 173.644 180.722H113.674C112.802 180.724 111.938 180.532 111.133 180.159C110.327 179.785 109.595 179.237 108.978 178.545C108.361 177.853 107.872 177.032 107.539 176.127C107.205 175.223 107.034 174.254 107.035 173.275V7.45205C107.035 6.47341 107.207 5.50434 107.54 4.60018C107.874 3.69601 108.363 2.87447 108.98 2.18247C109.596 1.49046 110.328 0.941552 111.133 0.567081C111.939 0.19261 112.802 -8.43224e-05 113.674 3.49623e-07H122.648V1.2919C122.648 2.91918 123.224 4.47992 124.249 5.63083C125.273 6.78173 126.664 7.42856 128.113 7.42903H158.615C159.781 7.43183 160.918 7.01195 161.855 6.23179C162.045 6.07708 162.224 5.90783 162.393 5.72527C162.927 5.153 163.352 4.46496 163.642 3.70288C163.932 2.94079 164.081 2.12055 164.08 1.2919V3.49623e-07H173.644C174.516 -0.000299479 175.379 0.192248 176.185 0.566642C176.991 0.941036 177.723 1.48994 178.339 2.18198C178.956 2.87403 179.444 3.69566 179.778 4.59991C180.112 5.50417 180.283 6.47334 180.283 7.45204Z" fill="#3F3D56"/>
<path opacity="0.1" d="M152.005 70.515C161.445 70.515 169.097 68.7969 169.097 66.6776C169.097 64.5584 161.445 62.8403 152.005 62.8403C142.566 62.8403 134.913 64.5584 134.913 66.6776C134.913 68.7969 142.566 70.515 152.005 70.515Z" fill="black"/>
<path opacity="0.1" d="M127.165 90.2132C136.605 90.2132 144.257 88.4952 144.257 86.3759C144.257 84.2566 136.605 82.5386 127.165 82.5386C117.725 82.5386 110.073 84.2566 110.073 86.3759C110.073 88.4952 117.725 90.2132 127.165 90.2132Z" fill="black"/>
<path opacity="0.1" d="M141.294 126.284C150.734 126.284 158.387 124.566 158.387 122.446C158.387 120.327 150.734 118.609 141.294 118.609C131.855 118.609 124.202 120.327 124.202 122.446C124.202 124.566 131.855 126.284 141.294 126.284Z" fill="black"/>
<path opacity="0.1" d="M136.509 165.424C145.948 165.424 153.601 163.706 153.601 161.587C153.601 159.468 145.948 157.75 136.509 157.75C127.069 157.75 119.417 159.468 119.417 161.587C119.417 163.706 127.069 165.424 136.509 165.424Z" fill="black"/>
<path d="M195.875 103.222H143.915V108.922V117.601V122.484L148.265 117.601H195.875V103.222Z" fill="#6C63FF"/>
<path d="M72.0146 66.5125H123.975V72.2116V80.8906V85.7739L119.624 80.8906H72.0146V66.5125Z" fill="#6C63FF"/>
<path d="M184.739 106.714H155.507V109.374H184.739V106.714Z" fill="white"/>
<path d="M184.739 110.704H155.507V113.365H184.739V110.704Z" fill="white"/>
<path d="M110.103 70.2593H80.8721V72.9198H110.103V70.2593Z" fill="white"/>
<path d="M110.103 74.25H80.8721V76.9105H110.103V74.25Z" fill="white"/>
<path d="M250 30.3511H152.005V41.0996V57.4681V66.6776L160.21 57.4681H250V30.3511Z" fill="#6C63FF"/>
<path d="M234.731 36.4907H167.274V42.6304H234.731V36.4907Z" fill="white"/>
<path d="M234.731 45.7002H167.274V51.8399H234.731V45.7002Z" fill="white"/>
<path d="M130.319 153.915C132.813 159.107 138.107 161.337 138.107 161.337C138.107 161.337 139.357 155.147 136.863 149.954C134.368 144.761 129.075 142.532 129.075 142.532C129.075 142.532 127.825 148.722 130.319 153.915Z" fill="white"/>
<path d="M132.034 152.206C136.537 155.247 138.271 161.288 138.271 161.288C138.271 161.288 132.704 162.398 128.201 159.357C123.698 156.316 121.963 150.275 121.963 150.275C121.963 150.275 127.53 149.165 132.034 152.206Z" fill="#6C63FF"/>
</g>
<defs>
<clipPath id="clip0_16_555">
<rect width="250" height="186" fill="white"/>
</clipPath>
</defs>
</svg>
