<svg width="118" height="106" viewBox="0 0 118 106" fill="none" xmlns="http://www.w3.org/2000/svg">
<path d="M58.7699 1.80874C58.9142 1.73397 59.0858 1.73397 59.2301 1.80874L59.9178 0.481875L59.2301 1.80874L108.326 27.2541C108.491 27.34 108.595 27.5112 108.595 27.698V78.2297C108.595 78.4165 108.491 78.5877 108.326 78.6736L59.2301 104.119C59.0858 104.194 58.9142 104.194 58.7699 104.119L9.67443 78.6736L8.9842 80.0054L9.67442 78.6736C9.5086 78.5877 9.4045 78.4165 9.4045 78.2297V27.698C9.4045 27.5112 9.5086 27.34 9.67443 27.2541L58.7699 1.80874L58.0822 0.481876L58.7699 1.80874Z" stroke="#4F89FD" stroke-width="3"/>
<path d="M82.7727 79.8568L58.9997 85.0092L35.2264 79.8568L29.7405 32.0183H88.2592L82.7727 79.8568Z" fill="#2062AF"/>
<path d="M58.9994 35.8932V80.8997L59.0531 80.9115L78.2916 76.7417L82.7322 35.8932H58.9994Z" fill="#3C9CD7"/>
<path d="M45.5075 24.9899V22.1425H50.6686V19.0269H41.6367V27.833H50.6686V24.9899H45.5075ZM59.9528 22.1425H63.561V19.0269H54.5283V22.1425C55.7368 23.1152 56.367 23.5808 58.1148 24.9876C57.0931 24.9876 54.5283 24.9906 54.5283 24.9904V27.833H63.561V24.9899L59.9528 22.1425ZM72.755 22.1425H76.3631V19.0269H67.3301V22.1425C68.5385 23.1152 69.1691 23.5808 70.9169 24.9876C69.8955 24.9876 67.3301 24.9906 67.3301 24.9904V27.833H76.3633V24.9899L72.755 22.1425Z" fill="black"/>
<path d="M58.9784 47.8547L41.9633 53.5587L42.5275 59.206L58.9784 53.5443L76.4778 47.522L77.2033 41.7451L58.9784 47.8547Z" fill="white"/>
<path d="M41.9631 53.5586L42.5274 59.206L58.9782 53.5443V47.8547L41.9631 53.5586Z" fill="url(#paint0_linear_412_8)"/>
<path d="M77.2034 41.7452L58.9784 47.8547V53.5443L76.4778 47.522L77.2034 41.7452Z" fill="url(#paint1_linear_412_8)"/>
<path d="M41.9893 53.5587L42.5537 59.206L67.7953 59.2707L67.2307 66.8004L58.9248 68.6826L50.9403 67.0599L50.4565 62.3863H43.0375L44.0053 71.4089L59.0054 74.9789L73.9242 71.4736L75.8598 53.5587H41.9893Z" fill="url(#paint2_linear_412_8)"/>
<path opacity="0.05" d="M58.9784 53.5587H41.9633L42.5275 59.206L58.9784 59.2483V53.5587ZM58.9784 68.6647L58.8977 68.6828L50.9143 67.06L50.4305 62.3864H43.0117L43.9793 71.409L58.9784 74.979V68.6647Z" fill="black"/>
<path d="M40.4309 41.7452H77.2034L76.4778 47.5222H41.3179L40.4309 41.7452Z" fill="url(#paint3_linear_412_8)"/>
<path opacity="0.05" d="M58.9784 41.7452H40.4309L41.3179 47.5222H58.9784V41.7452Z" fill="black"/>
<defs>
<linearGradient id="paint0_linear_412_8" x1="50.4707" y1="59.2061" x2="50.4707" y2="47.8548" gradientUnits="userSpaceOnUse">
<stop offset="0.387" stop-color="#D1D3D4" stop-opacity="0"/>
<stop offset="1" stop-color="#D1D3D4"/>
</linearGradient>
<linearGradient id="paint1_linear_412_8" x1="68.0907" y1="53.5445" x2="68.0907" y2="41.7453" gradientUnits="userSpaceOnUse">
<stop offset="0.387" stop-color="#D1D3D4" stop-opacity="0"/>
<stop offset="1" stop-color="#D1D3D4"/>
</linearGradient>
<linearGradient id="paint2_linear_412_8" x1="41.9893" y1="64.2689" x2="75.8596" y2="64.2689" gradientUnits="userSpaceOnUse">
<stop stop-color="#E8E7E5"/>
<stop offset="1" stop-color="white"/>
</linearGradient>
<linearGradient id="paint3_linear_412_8" x1="40.4309" y1="44.6337" x2="77.2032" y2="44.6337" gradientUnits="userSpaceOnUse">
<stop stop-color="#E8E7E5"/>
<stop offset="1" stop-color="white"/>
</linearGradient>
</defs>
</svg>
