<svg width="28" height="30" viewBox="0 0 28 30" fill="none" xmlns="http://www.w3.org/2000/svg">
<g clip-path="url(#clip0_412_16)">
<path d="M28 6.19571V23.8044C28 25.4283 26.7765 26.7392 25.2609 26.7392H2.73913C1.22347 26.7392 0 25.4283 0 23.8044V6.19571C0 6.14356 0 6.09136 0.00607031 6.03921C0.0791328 4.53921 1.19301 3.34571 2.59301 3.26749C2.64168 3.26099 2.69041 3.26099 2.73908 3.26099H25.2608C25.3095 3.26099 25.3643 3.26099 25.413 3.26749C26.8069 3.34577 27.9208 4.53921 27.9939 6.03271C28 6.08485 28 6.14356 28 6.19571Z" fill="#E6F3FF"/>
<path d="M25.4131 3.26725C25.3643 3.26074 25.3096 3.26074 25.2609 3.26074H14V26.739H25.2609C26.7765 26.739 28 25.4282 28 23.8042V6.19553C28 6.14338 28 6.08467 27.9939 6.03246C27.9209 4.53902 26.8069 3.34553 25.4131 3.26725Z" fill="#CFDBE6"/>
<path d="M27.9939 6.03261C27.9209 4.53911 26.807 3.34567 25.4131 3.26739C20.9393 8.06065 18.427 10.7525 14 15.4956C12.3206 13.6952 4.2443 5.03657 2.59306 3.26733C1.19306 3.34562 0.0791328 4.53905 0.006125 6.03905C0 6.09126 0 6.14347 0 6.19562V23.8043C0 25.4283 1.22347 26.7391 2.73913 26.7391H3.6522V9.94562L12.7096 19.6435C13.0627 20.0283 13.5313 20.2174 14.0001 20.2174C14.4687 20.2174 14.9375 20.0283 15.2905 19.6435L24.3479 9.93911V26.7391H25.261C26.7766 26.7391 28.0001 25.4283 28.0001 23.8043V6.19562C28 6.14347 28 6.08476 27.9939 6.03261Z" fill="#FF4B26"/>
<path d="M15.2904 19.6435L24.3478 9.93911V26.7391H25.2609C26.7765 26.7391 28 25.4283 28 23.8043V6.19562C28 6.14347 28 6.08476 27.9939 6.03255C27.9209 4.53905 26.807 3.34562 25.4131 3.26733C20.9394 8.06065 18.427 10.7525 14 15.4956V20.2173C14.4687 20.2173 14.9374 20.0283 15.2904 19.6435Z" fill="#D93F21"/>
</g>
<defs>
<clipPath id="clip0_412_16">
<rect width="28" height="30" fill="white"/>
</clipPath>
</defs>
</svg>
