<svg width="360" height="251" viewBox="0 0 360 251" fill="none" xmlns="http://www.w3.org/2000/svg">
<path fill-rule="evenodd" clip-rule="evenodd" d="M0 38.2143L15 30.3624C30 22.5105 60 7.16349 90 2.1668C120 -3.18679 150 2.1668 180 9.66183C210 17.5138 240 27.864 270 30.3624C300 32.8607 330 27.864 345 25.3657L360 22.5105V146H345C330 146 300 146 270 146C240 146 210 146 180 146C150 146 120 146 90 146C60 146 30 146 15 146H0V38.2143Z" fill="#4F47C8"/>
<path fill-rule="evenodd" clip-rule="evenodd" d="M360 253.786L345 261.638C330 269.49 300 284.837 270 289.833C240 295.187 210 289.833 180 282.338C150 274.486 120 264.136 90 261.638C60 259.139 30 264.136 15 266.634L0 269.49V146H15C30 146 60 146 90 146C120 146 150 146 180 146C210 146 240 146 270 146C300 146 330 146 345 146H360V253.786Z" fill="#4F47C8"/>
</svg>
