<svg width="32" height="30" viewBox="0 0 32 30" fill="none" xmlns="http://www.w3.org/2000/svg">
<path d="M15.9995 0.312256C7.16439 0.312256 0 7.05403 0 15.3727C0 22.0255 4.58374 27.6703 10.944 29.6614C11.7435 29.8003 12.0351 29.3353 12.0351 28.9356C12.0351 28.5785 12.0212 27.6316 12.0134 26.3745C7.56181 27.2856 6.62297 24.3558 6.62297 24.3558C5.89626 22.6158 4.84748 22.1537 4.84748 22.1537C3.39406 21.2189 4.9569 21.2368 4.9569 21.2368C6.56206 21.3427 7.40697 22.7895 7.40697 22.7895C8.83561 25.0908 11.153 24.4255 12.0645 24.0398C12.2085 23.0673 12.623 22.4029 13.0797 22.0269C9.52774 21.6461 5.79303 20.3552 5.79303 14.585C5.79303 12.9413 6.416 11.5966 7.43948 10.5427C7.27381 10.1619 6.72516 8.63145 7.59535 6.55855C7.59535 6.55855 8.93935 6.15403 11.9954 8.10209C13.2717 7.76822 14.6405 7.60129 16.0015 7.59451C17.3595 7.60129 18.7293 7.76774 20.0077 8.10209C23.0612 6.15403 24.4031 6.55855 24.4031 6.55855C25.2754 8.63145 24.7267 10.1619 24.5615 10.5427C25.5876 11.5966 26.207 12.9408 26.207 14.585C26.207 20.3697 22.4661 21.6423 18.9017 22.0158C19.4761 22.4808 19.9876 23.3992 19.9876 24.8048C19.9876 26.8187 19.9685 28.4416 19.9685 28.9356C19.9685 29.3392 20.257 29.8081 21.0684 29.6595C27.4204 27.6645 32 22.0235 32 15.3727C32 7.05403 24.8356 0.312256 15.9995 0.312256Z" fill="#3E77BF"/>
<path d="M15.9995 0.312256C7.16439 0.312256 0 7.05403 0 15.3727C0 22.0255 4.58374 27.6703 10.944 29.6614C11.7435 29.8003 12.0351 29.3353 12.0351 28.9356C12.0351 28.5785 12.0212 27.6316 12.0134 26.3745C7.56181 27.2856 6.62297 24.3558 6.62297 24.3558C5.89626 22.6158 4.84748 22.1537 4.84748 22.1537C3.39406 21.2189 4.9569 21.2368 4.9569 21.2368C6.56206 21.3427 7.40697 22.7895 7.40697 22.7895C8.83561 25.0908 11.153 24.4255 12.0645 24.0398C12.2085 23.0673 12.623 22.4029 13.0797 22.0269C9.52774 21.6461 5.79303 20.3552 5.79303 14.585C5.79303 12.9413 6.416 11.5966 7.43948 10.5427C7.27381 10.1619 6.72516 8.63145 7.59535 6.55855C7.59535 6.55855 8.93935 6.15403 11.9954 8.10209C13.2717 7.76822 14.6405 7.60129 16.0015 7.59451C17.3595 7.60129 18.7293 7.76774 20.0077 8.10209C23.0612 6.15403 24.4031 6.55855 24.4031 6.55855C25.2754 8.63145 24.7267 10.1619 24.5615 10.5427C25.5876 11.5966 26.207 12.9408 26.207 14.585C26.207 20.3697 22.4661 21.6423 18.9017 22.0158C19.4761 22.4808 19.9876 23.3992 19.9876 24.8048C19.9876 26.8187 19.9685 28.4416 19.9685 28.9356C19.9685 29.3392 20.257 29.8081 21.0684 29.6595C27.4204 27.6645 32 22.0235 32 15.3727C32 7.05403 24.8356 0.312256 15.9995 0.312256Z" fill="#3E77BF"/>
<path d="M24.4191 6.60059C25.266 8.65123 24.7256 10.1648 24.561 10.5427C25.5871 11.5966 26.2064 12.9407 26.2064 14.5849C26.2064 20.3696 22.4655 21.6422 18.9011 22.0158C19.4756 22.4808 19.9871 23.3991 19.9871 24.8048C19.9871 26.8187 19.968 28.4416 19.968 28.9356C19.968 29.3391 20.2565 29.808 21.0678 29.6595C27.4204 27.6645 32 22.0235 32 15.3727C32 13.5848 31.6676 11.8709 31.0601 10.2799C28.8542 8.10252 26.3989 6.65236 24.4191 6.60059Z" fill="#114C82"/>
<path d="M12.4501 22.8218C12.6297 22.4821 12.849 22.2179 13.0797 22.0268C11.1329 21.8178 9.13341 21.3305 7.7218 19.9858C8.80774 21.6804 10.576 22.4512 12.4501 22.8218Z" fill="#114C82"/>
<path d="M0.833032 16.3879C0.833032 8.06919 7.99742 1.32742 16.8325 1.32742C21.7383 1.32742 26.1265 3.40758 29.0606 6.67951C26.1626 2.8279 21.3946 0.312256 15.9995 0.312256C7.16439 0.312256 0 7.05403 0 15.3727C0 19.0816 1.4271 22.475 3.79045 25.0981C1.93187 22.6385 0.833032 19.6356 0.833032 16.3879Z" fill="#6CA9EA"/>
<path d="M20.8201 25.8205C20.8201 24.4154 20.3086 23.4955 19.7342 23.0305C23.2985 22.658 27.04 21.3844 27.04 15.6002C27.04 13.956 26.4206 12.6123 25.3935 11.5584C25.5597 11.1776 26.1094 9.64666 25.2351 7.57425C25.2351 7.57425 25.0689 7.52634 24.7256 7.54473C25.1003 9.10763 24.6988 10.2254 24.561 10.5428C25.5871 11.5967 26.2064 12.9409 26.2064 14.5851C26.2064 20.3697 22.4655 21.6423 18.9011 22.0159C19.4756 22.4809 19.9871 23.3992 19.9871 24.8049C19.9871 26.8188 19.968 28.4417 19.968 28.9357C19.968 29.2909 20.1935 29.6959 20.8015 29.6862C20.8056 29.0054 20.8201 27.56 20.8201 25.8205Z" fill="#083E66"/>
<path d="M7.57837 25.6448C7.91437 26.2932 9.04366 27.8464 12.0228 27.5193C12.0186 27.1777 12.0155 26.7949 12.0135 26.3745C9.71514 26.8448 8.35824 26.2903 7.57837 25.6448Z" fill="#114C82"/>
<path d="M8.15282 23.6727C8.05011 23.5275 7.85759 23.2812 7.57837 23.0349C7.75953 23.287 7.95205 23.4985 8.15282 23.6727Z" fill="#6CA9EA"/>
</svg>
