<svg width="118" height="106" viewBox="0 0 118 106" fill="none" xmlns="http://www.w3.org/2000/svg">
<path d="M58.7699 1.80874C58.9142 1.73397 59.0858 1.73397 59.2301 1.80874L59.9178 0.481875L59.2301 1.80874L108.326 27.2541C108.491 27.34 108.595 27.5112 108.595 27.698V78.2297C108.595 78.4165 108.491 78.5877 108.326 78.6736L59.2301 104.119C59.0858 104.194 58.9142 104.194 58.7699 104.119L9.67443 78.6736L8.9842 80.0054L9.67442 78.6736C9.5086 78.5877 9.4045 78.4165 9.4045 78.2297V27.698C9.4045 27.5112 9.5086 27.34 9.67443 27.2541L58.7699 1.80874L58.0822 0.481876L58.7699 1.80874Z" stroke="#4F89FD" stroke-width="3"/>
<g clip-path="url(#clip0_412_10)">
<path d="M84.707 35.8621L79.7498 84.2924L57.4667 89.6797L35.2451 84.2999L30.293 35.8621H84.707Z" fill="#E44D26"/>
<path d="M57.5 85.5617L75.5059 81.2085L79.7419 39.8225H57.5V85.5617Z" fill="#F16529"/>
<path d="M47.8633 51.7041H57.5V45.7634H40.4186L40.5815 47.3571L42.2559 63.7281H57.5V57.7874H48.4859L47.8633 51.7041ZM49.3986 66.6986H42.5603L43.5146 76.0264L57.4686 79.4044L57.5 79.3969V73.2161L57.4701 73.223L49.8836 71.4365L49.3986 66.6986Z" fill="#EBEBEB"/>
<path d="M35.3556 22.6987H38.8174V25.6814H41.9842V22.6987H45.4462V31.7311H41.9844V28.7066H38.8176V31.7311H35.3558V22.6987H35.3556ZM49.9984 25.6941H46.9512V22.6987H56.5099V25.6941H53.4608V31.7311H49.999V25.6941H49.9988H49.9984ZM58.0269 22.6987H61.6365L63.8569 25.8725L66.0752 22.6987H69.6863V31.7311H66.2386V27.2542L63.8569 30.4657H63.7972L61.414 27.2542V31.7311H58.0269V22.6987ZM71.4091 22.6987H74.8719V28.7456H79.7402V31.7311H71.4089V22.6987H71.4091Z" fill="black"/>
<path d="M57.4765 63.7281H65.8648L65.0739 71.4328L57.4763 73.2211V79.4016L71.4415 76.0264L71.5439 75.0226L73.1449 59.3827L73.311 57.7874H57.4765V63.7281ZM57.4765 51.6895V51.7041H73.9309L74.0674 50.3689L74.3779 47.3571L74.5407 45.7634H57.4765V51.6897V51.6895Z" fill="white"/>
</g>
<defs>
<clipPath id="clip0_412_10">
<rect width="77" height="67.1506" fill="white" transform="translate(19 22.6987)"/>
</clipPath>
</defs>
</svg>
