<svg width="36" height="38" viewBox="0 0 36 38" fill="none" xmlns="http://www.w3.org/2000/svg">
<g filter="url(#filter0_d_412_13)">
<path d="M29.4672 0H6.53283C5.134 0 4 1.215 4 2.71374V27.2862C4 28.785 5.134 30 6.53283 30H29.4671C30.866 30 32 28.785 32 27.2862V2.71374C32 1.215 30.866 0 29.4672 0ZM12.6644 25.904C12.6644 26.3402 12.3344 26.6937 11.9273 26.6937H8.78969C8.38259 26.6937 8.0526 26.3402 8.0526 25.904V11.8118C8.0526 11.3756 8.38259 11.022 8.78969 11.022H11.9273C12.3344 11.022 12.6644 11.3756 12.6644 11.8118V25.904ZM10.3585 9.69361C8.71228 9.69361 7.37774 8.26374 7.37774 6.49995C7.37774 4.73615 8.71228 3.30628 10.3585 3.30628C12.0047 3.30628 13.3392 4.73615 13.3392 6.49995C13.3392 8.26374 12.0048 9.69361 10.3585 9.69361ZM29.0615 25.9676C29.0615 26.3686 28.758 26.6937 28.3837 26.6937H25.0169C24.6426 26.6937 24.3391 26.3686 24.3391 25.9676V19.3575C24.3391 18.3715 24.6091 15.0365 21.934 15.0365C19.859 15.0365 19.4381 17.3192 19.3536 18.3436V25.9676C19.3536 26.3686 19.0502 26.6937 18.6759 26.6937H15.4195C15.0453 26.6937 14.7418 26.3686 14.7418 25.9676V11.7481C14.7418 11.3471 15.0453 11.022 15.4195 11.022H18.6759C19.0501 11.022 19.3536 11.3471 19.3536 11.7481V12.9776C20.123 11.7404 21.2665 10.7855 23.7011 10.7855C29.0923 10.7855 29.0615 16.1821 29.0615 19.1472V25.9676Z" fill="#0DA4F5"/>
</g>
<defs>
<filter id="filter0_d_412_13" x="0" y="0" width="36" height="38" filterUnits="userSpaceOnUse" color-interpolation-filters="sRGB">
<feFlood flood-opacity="0" result="BackgroundImageFix"/>
<feColorMatrix in="SourceAlpha" type="matrix" values="0 0 0 0 0 0 0 0 0 0 0 0 0 0 0 0 0 0 127 0" result="hardAlpha"/>
<feOffset dy="4"/>
<feGaussianBlur stdDeviation="2"/>
<feColorMatrix type="matrix" values="0 0 0 0 0 0 0 0 0 0 0 0 0 0 0 0 0 0 0.25 0"/>
<feBlend mode="normal" in2="BackgroundImageFix" result="effect1_dropShadow_412_13"/>
<feBlend mode="normal" in="SourceGraphic" in2="effect1_dropShadow_412_13" result="shape"/>
</filter>
</defs>
</svg>
