<svg width="36" height="32" viewBox="0 0 36 32" fill="none" xmlns="http://www.w3.org/2000/svg">
<path d="M21.099 16.44L19.687 15.185C19.8411 14.9032 19.976 14.6138 20.0913 14.3176H22.088C22.7441 14.3176 23.2762 13.8447 23.2762 13.2614V10.1652C23.2762 9.58194 22.7442 9.10895 22.088 9.10895H20.0912C19.9759 8.81286 19.841 8.52346 19.687 8.24171L21.099 6.9866C21.563 6.57416 21.563 5.90539 21.099 5.49295L18.636 3.30359C18.1719 2.89125 17.4198 2.89125 16.9556 3.30359L15.5436 4.5587C15.2267 4.42186 14.9012 4.30183 14.568 4.19948V2.4245C14.568 1.84128 14.036 1.36829 13.3798 1.36829H9.89649C9.24037 1.36829 8.70824 1.84118 8.70824 2.4245V4.19948C8.37515 4.30194 8.04958 4.42175 7.73261 4.5587L6.32073 3.30359C6.09794 3.10555 5.79564 2.99425 5.48049 2.99425C5.16533 2.99425 4.86315 3.10555 4.64024 3.30359L2.17709 5.49295C1.9543 5.69098 1.82909 5.95969 1.82909 6.23983C1.82909 6.51996 1.9543 6.78857 2.17709 6.98671L3.58909 8.24182C3.43515 8.52346 3.30012 8.81286 3.18497 9.10905H1.18824C0.532 9.10905 0 9.58194 0 10.1652V13.2615C0 13.8447 0.532 14.3177 1.18824 14.3177H3.18497C3.30036 14.6138 3.43515 14.9032 3.58921 15.1851L2.17721 16.4401C1.71321 16.8525 1.71321 17.5213 2.17721 17.9337L4.64024 20.1231C5.10436 20.5353 5.85649 20.5355 6.32061 20.1231L7.73261 18.868C8.04945 19.0049 8.37515 19.1249 8.70824 19.2273V21.0023C8.70824 21.5855 9.24024 22.0585 9.89649 22.0585H13.3799C14.036 22.0585 14.5681 21.5856 14.5681 21.0023V19.2273C14.9011 19.1248 15.2268 19.0049 15.5438 18.868L16.9558 20.1231C17.4199 20.5354 18.172 20.5354 18.6361 20.1231L21.0992 17.9337C21.5632 17.5212 21.5632 16.8524 21.099 16.44ZM18.0398 13.0252C17.8761 13.6587 17.5964 14.2589 17.2082 14.8093C16.9141 15.2263 16.9833 15.7689 17.3749 16.1169L18.5785 17.1868L17.7959 17.8827L16.5921 16.8126C16.2004 16.4645 15.5902 16.4033 15.121 16.6645C14.5016 17.0096 13.8264 17.2583 13.1142 17.4035C12.5743 17.5136 12.1918 17.9407 12.1918 18.433V19.9461H11.0848V18.433C11.0848 17.9407 10.7023 17.5137 10.1624 17.4035C9.45018 17.2583 8.77503 17.0096 8.15564 16.6645C7.68679 16.4034 7.07624 16.4644 6.68449 16.8126L5.48073 17.8827L4.69806 17.1868L5.9017 16.1169C6.29333 15.7688 6.36242 15.2263 6.06836 14.8093C5.68024 14.2589 5.40049 13.6587 5.23685 13.0252C5.11297 12.5454 4.63261 12.2054 4.07879 12.2054H2.37636V11.2215H4.07842C4.63212 11.2215 5.11249 10.8814 5.23649 10.4018C5.40024 9.76823 5.67988 9.1681 6.068 8.61785C6.3623 8.20077 6.29309 7.65817 5.90145 7.31005L4.6977 6.24004L5.48049 5.54434L6.68412 6.61435C7.07576 6.96257 7.6863 7.02367 8.15539 6.76239C8.77455 6.41739 9.4497 6.16882 10.1621 6.02348C10.7019 5.91336 11.0845 5.48627 11.0845 4.99398V3.48072H12.1914V4.99377C12.1914 5.48605 12.5739 5.91304 13.1138 6.02326C13.8263 6.16861 14.5013 6.41717 15.1205 6.76217C15.5897 7.02367 16.2002 6.96247 16.5918 6.61413L17.7955 5.54412L18.5782 6.23983L17.3744 7.30983C16.9828 7.65806 16.9137 8.20056 17.2079 8.61763C17.596 9.16788 17.8756 9.76812 18.0394 10.4016C18.1633 10.8812 18.6438 11.2213 19.1975 11.2213H20.8995V12.2052H19.1975C18.6439 12.2053 18.1636 12.5453 18.0398 13.0252Z" fill="#F37A7A"/>
<path d="M11.6381 7.65479C9.12039 7.65479 7.07214 9.47544 7.07214 11.7134C7.07214 13.9514 9.12039 15.772 11.6381 15.772C14.1558 15.772 16.204 13.9514 16.204 11.7134C16.204 9.47544 14.1559 7.65479 11.6381 7.65479ZM11.6381 13.6597C10.4307 13.6597 9.44851 12.7866 9.44851 11.7134C9.44851 10.6402 10.4308 9.76711 11.6381 9.76711C12.8454 9.76711 13.8277 10.6402 13.8277 11.7134C13.8277 12.7866 12.8455 13.6597 11.6381 13.6597Z" fill="#F37A7A"/>
<path d="M35.2217 23.8208C35.7379 23.7361 36.0793 23.2956 35.984 22.8367L35.5356 20.6761C35.4899 20.4556 35.3475 20.2605 35.14 20.1335C34.9323 20.0065 34.6762 19.9579 34.4285 19.9985L33.1097 20.2146C33.0075 20.0586 32.8968 19.907 32.7784 19.7603L33.5388 18.7786C33.6817 18.5939 33.7363 18.3665 33.6906 18.1461C33.6449 17.9257 33.5025 17.7306 33.2949 17.6035L31.259 16.3576C30.827 16.0931 30.2349 16.1898 29.9372 16.5743L29.1767 17.556C28.9802 17.5099 28.7816 17.4723 28.5811 17.4431L28.3378 16.271C28.2425 15.8121 27.7463 15.5084 27.2306 15.5934L24.8 15.9919C24.552 16.0325 24.3325 16.1591 24.1896 16.3436C24.0467 16.5283 23.992 16.7557 24.0377 16.976L24.281 18.1483C24.1053 18.2392 23.9348 18.3375 23.7697 18.4428L22.6653 17.7669C22.4576 17.6399 22.2017 17.5915 21.9538 17.6319C21.7058 17.6725 21.4863 17.7991 21.3434 17.9837L19.9417 19.7933C19.7987 19.9779 19.7441 20.2054 19.7898 20.4257C19.8355 20.6461 19.9779 20.8414 20.1856 20.9684L21.2899 21.6442C21.238 21.8189 21.1957 21.9954 21.1629 22.1737L19.8441 22.39C19.5961 22.4306 19.3766 22.5572 19.2337 22.7416C19.0907 22.9263 19.0361 23.1538 19.0818 23.3741L19.5303 25.5347C19.6256 25.9936 20.1211 26.2974 20.6374 26.2123L21.9562 25.9961C22.0584 26.1521 22.1691 26.3038 22.2875 26.4505L21.5271 27.4321C21.3842 27.6167 21.3296 27.8441 21.3753 28.0645C21.421 28.285 21.5634 28.4801 21.771 28.6071L23.8069 29.8531C24.2389 30.1176 24.8311 30.0207 25.1287 29.6364L25.8891 28.6548C26.0856 28.7008 26.2842 28.7384 26.4848 28.7677L26.7281 29.9398C26.8126 30.3469 27.2122 30.6316 27.6618 30.6316C27.719 30.6316 27.7771 30.6271 27.8353 30.6175L30.2659 30.219C30.5139 30.1784 30.7334 30.0518 30.8763 29.8673C31.0193 29.6826 31.0739 29.4552 31.0282 29.2348L30.785 28.0626C30.9606 27.9717 31.1311 27.8734 31.2962 27.7681L32.4005 28.444C32.6082 28.5711 32.8639 28.6197 33.112 28.579C33.36 28.5384 33.5795 28.4118 33.7224 28.2272L35.1241 26.4176C35.4218 26.0332 35.3127 25.5072 34.8803 25.2426L33.776 24.5666C33.8279 24.392 33.8702 24.2154 33.903 24.0372L35.2217 23.8208ZM32.8599 22.4898C32.424 22.5613 32.1016 22.891 32.0826 23.2845C32.0608 23.7343 31.9551 24.1745 31.7685 24.5932C31.6052 24.9593 31.7481 25.3772 32.1131 25.6005L33.0194 26.1553L32.6957 26.5731L31.7896 26.0185C31.4243 25.795 30.9343 25.8255 30.608 26.0917C30.2345 26.3961 29.8094 26.641 29.3445 26.8197C28.9377 26.9759 28.7063 27.3613 28.7866 27.7485L28.9863 28.7107L28.4252 28.8027L28.2256 27.8406C28.1452 27.4533 27.7744 27.1667 27.3317 27.1498C26.8253 27.1303 26.3299 27.0363 25.859 26.8705C25.7448 26.8303 25.6264 26.811 25.5092 26.811C25.2036 26.811 24.9075 26.9425 24.7259 27.1768L24.1019 27.9824L23.6319 27.6948L24.2559 26.8893C24.5071 26.5648 24.473 26.1292 24.1734 25.839C23.831 25.507 23.5555 25.1291 23.3544 24.7156C23.1785 24.3541 22.744 24.1484 22.3094 24.22L21.2271 24.3975L21.1235 23.8987L22.2059 23.7213C22.6418 23.6498 22.9642 23.3201 22.9831 22.9266C23.005 22.4768 23.1107 22.0366 23.2973 21.6177C23.4606 21.2515 23.3176 20.8338 22.9526 20.6104L22.0463 20.0558L22.3699 19.638L23.2762 20.1926C23.6414 20.4162 24.1313 20.3856 24.4578 20.1194C24.8313 19.815 25.2563 19.5701 25.7216 19.3913C26.1281 19.235 26.3595 18.8497 26.2791 18.4625L26.0795 17.5004L26.6406 17.4084L26.8402 18.3705C26.9206 18.7579 27.2915 19.0445 27.7342 19.0613C28.2402 19.0807 28.7355 19.1747 29.2065 19.3406C29.6188 19.4858 30.0886 19.3586 30.3397 19.0343L30.9639 18.2286L31.4339 18.5162L30.8099 19.3219C30.5586 19.6464 30.5928 20.082 30.8923 20.3722C31.2348 20.7041 31.5103 21.0819 31.7113 21.4953C31.8869 21.8567 32.321 22.0626 32.7562 21.9911L33.8386 21.8136L33.9422 22.3124L32.8599 22.4898Z" fill="#F37A7A"/>
<path d="M29.4312 20.6547C28.6948 20.2041 27.8048 20.0354 26.9256 20.1794C26.0463 20.3236 25.2828 20.7636 24.7758 21.4182C23.729 22.7695 24.1143 24.6259 25.6346 25.5563C26.213 25.9103 26.8737 26.08 27.5279 26.08C28.5932 26.08 29.6416 25.63 30.2901 24.7928C31.3368 23.4415 30.9514 21.585 29.4312 20.6547ZM28.7243 23.8345C28.272 24.4183 27.3696 24.5663 26.7129 24.1644C26.056 23.7625 25.8895 22.9603 26.3417 22.3765C26.3418 22.3764 26.3418 22.3764 26.3418 22.3764C26.5607 22.0936 26.8907 21.9035 27.2706 21.8413C27.3591 21.8268 27.4479 21.8196 27.536 21.8196C27.8261 21.8196 28.1091 21.8973 28.3531 22.0466C29.01 22.4486 29.1765 23.2507 28.7243 23.8345Z" fill="#F37A7A"/>
</svg>
