<svg width="28" height="30" viewBox="0 0 28 30" fill="none" xmlns="http://www.w3.org/2000/svg">
<g clip-path="url(#clip0_412_15)">
<path d="M0.539494 22.5003C1.72236 22.3456 2.92182 22.5123 4.10468 22.304C4.69883 22.2029 5.24307 21.9887 5.78174 21.7626C4.44901 20.8464 3.24943 19.7992 2.13332 18.5438C1.7335 18.0975 2.02222 17.3478 2.60535 17.3301C3.08295 17.3538 3.54941 17.3123 4.00472 17.211C2.84403 15.6343 1.94444 13.9386 1.24475 12.0346C1.05599 11.5229 1.61125 11.0054 2.06111 11.16C2.32209 11.273 2.58863 11.3504 2.86075 11.4099C2.03337 9.27978 1.8612 7.13192 2.32209 4.77571C2.42761 4.23426 3.09398 4.10341 3.43274 4.46039C6.08718 7.25667 9.4413 8.60139 13.0287 9.24395C12.7121 6.6141 14.4559 3.8177 16.7437 2.90136C18.643 2.14572 21.1919 2.66341 22.4691 4.37692C23.3244 3.79978 24.5071 3.60935 25.4568 3.43086C25.9565 3.34155 26.4397 3.86521 26.1454 4.39471C25.8011 5.01352 25.4735 5.67387 25.1125 6.30463C25.8456 6.07252 26.6008 5.92973 27.356 5.82861C27.9003 5.75124 28.2279 6.64967 27.8115 7.00665C26.9285 7.76228 26.051 8.62501 25.1125 9.31522C25.0848 15.9969 23.2633 21.6018 17.6935 25.4037C13.0508 28.5811 4.42114 28.0456 0.384049 23.72H0.378476C0.200738 23.6724 0.106356 23.5296 0.0730379 23.375C-0.0824073 23.1251 0.0285731 22.8158 0.234056 22.6967C0.311839 22.5955 0.411794 22.5181 0.539494 22.5003Z" fill="#3FA9F5"/>
</g>
<defs>
<clipPath id="clip0_412_15">
<rect width="28" height="30" fill="white"/>
</clipPath>
</defs>
</svg>
