<svg width="108" height="28" viewBox="0 0 108 28" fill="none" xmlns="http://www.w3.org/2000/svg">
<path d="M49.1569 7.65308L45.1491 18.9558H43.4088L39.401 7.65308H41.1764L44.2877 16.9343L47.3991 7.65308H49.1569ZM51.8991 18.9558H50.4752V11.1335H51.8991V18.9558ZM51.9518 9.09448H50.4225V7.65308H51.9518V9.09448ZM60.0729 16.6707C60.0729 17.5496 59.7448 18.1882 59.0885 18.5867C58.4323 18.9734 57.6178 19.1667 56.6452 19.1667C55.7897 19.1667 55.0983 18.9675 54.5709 18.5691C54.0436 18.1707 53.7799 17.5437 53.7799 16.6882H55.2038C55.2155 17.6609 55.7604 18.1472 56.8385 18.1472C57.3073 18.1472 57.7233 18.03 58.0866 17.7957C58.4498 17.5496 58.6315 17.2097 58.6315 16.7761C58.6315 16.4128 58.4674 16.1433 58.1393 15.9675C57.8229 15.78 57.4362 15.6511 56.9791 15.5808C56.5221 15.4988 56.0651 15.3992 55.6081 15.282C55.151 15.1648 54.7584 14.9246 54.4303 14.5613C54.1139 14.198 53.9557 13.7058 53.9557 13.0847C53.9557 12.4871 54.1842 11.9832 54.6413 11.573C55.11 11.1511 55.86 10.9402 56.8913 10.9402C57.8288 10.9402 58.5553 11.1042 59.0709 11.4324C59.5866 11.7605 59.8444 12.364 59.8444 13.2429H58.4206C58.4206 12.364 57.8991 11.9246 56.8561 11.9246C56.4459 11.9246 56.0944 12.0359 55.8014 12.2585C55.5202 12.4695 55.3795 12.7449 55.3795 13.0847C55.3795 13.448 55.5377 13.7292 55.8541 13.9285C56.1823 14.116 56.5748 14.2507 57.0319 14.3328C57.5006 14.4148 57.9635 14.5144 58.4206 14.6316C58.8776 14.7488 59.2643 14.9773 59.5807 15.3171C59.9088 15.6453 60.0729 16.0964 60.0729 16.6707ZM63.36 18.9558H61.9362V11.1335H63.36V18.9558ZM63.4127 9.09448H61.8834V7.65308H63.4127V9.09448ZM69.4596 18.9558C69.0495 19.0964 68.6627 19.1667 68.2995 19.1667C67.5729 19.1667 67.0573 19.0027 66.7526 18.6746C66.4596 18.3464 66.3131 17.7546 66.3131 16.8992V12.1355H64.8893V11.1335H66.3131V9.56909L67.737 8.98901V11.1335H69.4596V12.1355H67.737V16.8992C67.737 17.3679 67.8014 17.6843 67.9303 17.8484C68.0709 18.0125 68.2877 18.0945 68.5807 18.0945C68.8854 18.0945 69.1784 18.0476 69.4596 17.9539V18.9558ZM83.6627 16.6707C83.6627 17.5496 83.3346 18.1882 82.6784 18.5867C82.0221 18.9734 81.2077 19.1667 80.235 19.1667C79.3795 19.1667 78.6881 18.9675 78.1608 18.5691C77.6334 18.1707 77.3698 17.5437 77.3698 16.6882H78.7936C78.8053 17.6609 79.3502 18.1472 80.4284 18.1472C80.8971 18.1472 81.3131 18.03 81.6764 17.7957C82.0397 17.5496 82.2213 17.2097 82.2213 16.7761C82.2213 16.4128 82.0573 16.1433 81.7291 15.9675C81.4127 15.78 81.026 15.6511 80.569 15.5808C80.112 15.4988 79.6549 15.3992 79.1979 15.282C78.7409 15.1648 78.3483 14.9246 78.0202 14.5613C77.7038 14.198 77.5456 13.7058 77.5456 13.0847C77.5456 12.4871 77.7741 11.9832 78.2311 11.573C78.6998 11.1511 79.4498 10.9402 80.4811 10.9402C81.4186 10.9402 82.1452 11.1042 82.6608 11.4324C83.1764 11.7605 83.4342 12.364 83.4342 13.2429H82.0104C82.0104 12.364 81.4889 11.9246 80.4459 11.9246C80.0358 11.9246 79.6842 12.0359 79.3913 12.2585C79.11 12.4695 78.9694 12.7449 78.9694 13.0847C78.9694 13.448 79.1276 13.7292 79.444 13.9285C79.7721 14.116 80.1647 14.2507 80.6217 14.3328C81.0905 14.4148 81.5534 14.5144 82.0104 14.6316C82.4674 14.7488 82.8541 14.9773 83.1706 15.3171C83.4987 15.6453 83.6627 16.0964 83.6627 16.6707ZM86.9498 18.9558H85.526V11.1335H86.9498V18.9558ZM87.0026 9.09448H85.4733V7.65308H87.0026V9.09448ZM93.0495 18.9558C92.6393 19.0964 92.2526 19.1667 91.8893 19.1667C91.1627 19.1667 90.6471 19.0027 90.3424 18.6746C90.0495 18.3464 89.903 17.7546 89.903 16.8992V12.1355H88.4791V11.1335H89.903V9.56909L91.3268 8.98901V11.1335H93.0495V12.1355H91.3268V16.8992C91.3268 17.3679 91.3913 17.6843 91.5202 17.8484C91.6608 18.0125 91.8776 18.0945 92.1706 18.0945C92.4752 18.0945 92.7682 18.0476 93.0495 17.9539V18.9558ZM99.9049 14.2449C99.9166 14.1628 99.9225 14.0457 99.9225 13.8933C99.9225 13.3191 99.7584 12.8503 99.4303 12.4871C99.1139 12.1121 98.6041 11.9246 97.901 11.9246C96.7526 11.9246 96.0553 12.698 95.8092 14.2449H99.9049ZM101.399 16.4597C101.27 17.2097 100.913 17.8484 100.327 18.3757C99.7526 18.9031 98.9323 19.1667 97.8659 19.1667C97.2448 19.1667 96.694 19.0378 96.2135 18.78C95.7448 18.5222 95.3756 18.1882 95.1061 17.7781C94.8366 17.3562 94.6373 16.9167 94.5084 16.4597C94.3795 16.0027 94.3151 15.5339 94.3151 15.0535C94.3151 14.5378 94.3795 14.0515 94.5084 13.5945C94.6373 13.1257 94.8366 12.6863 95.1061 12.2761C95.3756 11.866 95.7565 11.5437 96.2487 11.3093C96.7409 11.0632 97.3151 10.9402 97.9713 10.9402C98.5573 10.9402 99.067 11.0281 99.5006 11.2039C99.9459 11.3796 100.286 11.5964 100.52 11.8542C100.766 12.1003 100.96 12.3992 101.1 12.7507C101.253 13.0906 101.346 13.4011 101.381 13.6824C101.428 13.9519 101.452 14.2332 101.452 14.5261C101.452 14.7957 101.434 15.0417 101.399 15.2644H95.8092C95.8092 16.1316 95.9791 16.8289 96.319 17.3562C96.6588 17.8835 97.1862 18.1472 97.901 18.1472C98.5456 18.1472 99.0202 17.9773 99.3248 17.6375C99.6413 17.2976 99.8346 16.905 99.9049 16.4597H101.399Z" fill="#0571AD"/>
<g clip-path="url(#clip0_16_410)">
<path d="M17.0916 17.6537H16.2816C15.3952 18.3441 14.5087 18.9758 13.6222 19.5419V21.3507C15.0365 21.009 16.2816 19.6144 17.0916 17.6537Z" fill="white"/>
<path d="M16.6241 4.2395C17.4058 5.06454 18.0546 6.14839 18.526 7.42218H21.407C20.2265 5.99306 18.5664 4.87466 16.6241 4.2395Z" fill="white"/>
<path d="M13.6183 18.0748C13.8157 17.9402 14.0172 17.7987 14.2146 17.6537H13.6183V18.0748Z" fill="white"/>
<path d="M13.6183 3.74243V7.41871H17.0795C16.2737 5.47186 15.0286 4.08764 13.6183 3.74243Z" fill="white"/>
<path d="M13.6183 11.9546H18.0346C17.9862 10.7568 17.7928 9.6142 17.4906 8.58203H13.6183V11.9546H13.6183Z" fill="white"/>
<path d="M18.5381 17.6537C18.0627 18.9344 17.4058 20.0252 16.6201 20.8571C18.5704 20.2219 20.2386 19.0966 21.4232 17.6537H18.5381Z" fill="white"/>
<path d="M18.8969 8.58899C19.1749 9.62804 19.3481 10.7637 19.3884 11.9615H20.4281C21.242 10.9881 21.9351 10.0216 22.479 9.08611C22.3984 8.91695 22.3098 8.75126 22.2131 8.59251H18.8969V8.58899Z" fill="white"/>
<path d="M23.0673 10.629C22.7731 11.0709 22.4548 11.5127 22.1123 11.9546H23.2889C23.2566 11.5058 23.1801 11.0639 23.0673 10.629Z" fill="white"/>
<path d="M19.4062 13.1178H19.3965C19.3965 13.1219 19.3965 13.126 19.3965 13.126C19.3965 13.126 19.3965 13.1219 19.4062 13.1178Z" fill="white"/>
<path d="M16.6645 15.7345C17.0876 15.372 17.4986 14.9992 17.8935 14.6299C17.9661 14.1397 18.0144 13.6357 18.0386 13.1213H13.6183V16.4939H15.7458C16.0561 16.2453 16.3583 15.9933 16.6645 15.7345Z" fill="white"/>
<path d="M12.2603 8.58899H8.38807C8.08589 9.6211 7.89242 10.7603 7.84412 11.9615H12.2604V8.58899H12.2603Z" fill="white"/>
<path d="M4.47144 7.4256H7.35246C7.82791 6.15528 8.4807 5.06791 9.25434 4.24292C7.32023 4.87461 5.65614 5.99301 4.47144 7.4256Z" fill="white"/>
<path d="M2.59387 11.9546H6.49032C6.53464 10.7568 6.70387 9.62456 6.98192 8.58203H3.65766C3.0573 9.6142 2.68656 10.7533 2.59387 11.9546Z" fill="white"/>
<path d="M6.97777 16.4903C6.69971 15.4513 6.53049 14.3156 6.49022 13.1178H2.58972C2.68241 14.3225 3.05308 15.4617 3.64541 16.4903H6.97777Z" fill="white"/>
<path d="M8.80298 7.42565H12.2642V3.74243C10.854 4.08764 9.6129 5.47186 8.80298 7.42565Z" fill="white"/>
<path d="M12.2603 13.1178H7.84399C7.89236 14.3156 8.08172 15.4548 8.38396 16.4903H12.2603V13.1178Z" fill="white"/>
<path d="M19.1869 15.1477C19.1103 15.6068 19.0176 16.0556 18.9008 16.4871H22.2291C22.8254 15.4584 23.1961 14.3192 23.2848 13.1145H21.1411C20.5528 13.7945 19.9041 14.4711 19.1869 15.1477Z" fill="white"/>
<path d="M12.2603 20.3773C11.9218 20.5706 11.5954 20.7501 11.265 20.9227C11.5833 21.1264 11.9218 21.2679 12.2603 21.3507V20.3773Z" fill="white"/>
<path d="M12.2604 17.6537H8.79102C9.18588 18.6168 9.69362 19.4418 10.2658 20.0701C10.9105 19.7456 11.5754 19.3728 12.2604 18.9551V17.6537Z" fill="white"/>
<path d="M4.45935 17.6537C5.56746 18.9999 7.0986 20.0631 8.88368 20.719C8.94813 20.6948 9.00453 20.6638 9.06499 20.6396C8.36789 19.8387 7.77962 18.8274 7.34038 17.6537H4.45935Z" fill="white"/>
<path d="M24.1758 2.91704C22.7776 1.71924 20.2109 1.7917 16.9349 3.09309C15.6858 2.7065 14.344 2.48901 12.9378 2.48901C6.4705 2.49248 1.20809 7.00416 1.20809 12.5445C1.20809 13.7457 1.45791 14.9022 1.91323 15.9688C0.390134 18.7786 0.265224 21.019 1.70368 22.1753C3.6217 23.7149 6.8855 22.8519 8.92843 21.9924C10.1816 22.3859 11.5354 22.5999 12.9417 22.5999C19.409 22.5999 24.6754 18.0917 24.6754 12.5479C24.6754 11.3466 24.4296 10.1971 23.9783 9.12701C25.5256 6.22403 25.5096 4.05963 24.1758 2.91704ZM23.2168 3.74208C24.0227 4.43245 24.0066 5.85121 23.2088 7.68764C22.141 6.03762 20.5453 4.67065 18.6193 3.75591C20.7427 3.07584 22.419 3.0586 23.2168 3.74208ZM20.4325 11.9542H19.3929C19.3485 10.7564 19.1793 9.62419 18.9013 8.58167H22.2255C22.3222 8.74389 22.4068 8.90616 22.4915 9.07527C21.9435 10.0143 21.2464 10.9842 20.4325 11.9542ZM23.0677 10.6287C23.1765 11.0567 23.249 11.4986 23.2894 11.9542H22.1128C22.4633 11.5124 22.7736 11.0705 23.0677 10.6287ZM19.4049 13.1175C19.4009 13.121 19.4009 13.1244 19.3969 13.1244C19.3969 13.121 19.3969 13.1175 19.3969 13.1175H19.4049ZM18.5306 7.4253C18.0551 6.15498 17.4023 5.06761 16.6287 4.24262C18.5709 4.87778 20.231 5.99618 21.4116 7.4253H18.5306ZM13.6187 16.49V13.1175H18.035C18.0149 13.6318 17.9624 14.1358 17.8899 14.626C17.4951 14.9988 17.0841 15.3682 16.661 15.7306C16.3588 15.9895 16.0525 16.2415 15.7503 16.4866H13.6188V16.49H13.6187ZM14.2231 17.6533C14.0257 17.7983 13.8242 17.9364 13.6267 18.0745V17.6533H14.2231ZM17.491 8.58861C17.7931 9.62072 17.9866 10.7599 18.0349 11.9612H13.6186V8.58861H17.491ZM13.6187 7.4253V3.74208C15.025 4.08382 16.2741 5.4715 17.08 7.41836H13.6187V7.4253ZM13.6187 19.5416C14.5052 18.972 15.3916 18.3403 16.2781 17.6533H17.0881C16.2782 19.614 15.033 21.0052 13.6187 21.3503V19.5416ZM16.6207 20.8533C17.4064 20.0248 18.0592 18.9305 18.5387 17.6499H21.4278C20.2431 19.0928 18.5708 20.2181 16.6207 20.8533ZM22.2377 16.49H18.9094C19.0262 16.062 19.1149 15.6098 19.1955 15.1507C19.9127 14.4707 20.5614 13.7941 21.1537 13.121H23.2974C23.2047 14.3222 22.834 15.4614 22.2377 16.49ZM10.2703 20.0697C9.69409 19.438 9.1904 18.613 8.79548 17.6533H12.2648V18.9547C11.5838 19.3724 10.919 19.7452 10.2703 20.0697ZM12.2608 20.3769V21.3503C11.9183 21.2675 11.5879 21.1191 11.2655 20.9223C11.5959 20.7463 11.9304 20.5668 12.2608 20.3769ZM9.07353 20.6393C9.00908 20.6669 8.94862 20.6945 8.89221 20.7187C7.10315 20.0663 5.57195 18.9961 4.46391 17.6533H7.35303C7.7881 18.827 8.37238 19.8384 9.07353 20.6393ZM8.38447 16.49C8.0823 15.4579 7.89288 14.3188 7.84451 13.1175H12.2608V16.49H8.38447ZM7.84856 11.9542C7.89693 10.7564 8.09034 9.61383 8.39251 8.58167H12.2648V11.9542H7.84856ZM7.35297 7.4253H4.47189C5.65248 5.99618 7.31264 4.87431 9.25479 4.24262C8.48121 5.06761 7.82843 6.15151 7.35297 7.4253ZM6.98223 8.58861C6.70418 9.62766 6.53096 10.7633 6.49063 11.9612H2.59419C2.68688 10.7564 3.0616 9.6173 3.65798 8.58861H6.98223ZM6.49063 13.1175C6.53495 14.3153 6.70418 15.4476 6.97818 16.4901H3.64994C3.05356 15.4614 2.68289 14.3223 2.59425 13.1175H6.49063ZM12.2608 7.4253H8.79953C9.6135 5.47497 10.8546 4.08729 12.2608 3.74555V7.4253ZM2.66674 21.3504C1.86892 20.6669 1.88506 19.2309 2.67478 17.4083C3.73857 19.0549 5.33017 20.4149 7.24414 21.3331C5.10859 22.0097 3.44842 22.0235 2.66674 21.3504Z" fill="#194F82"/>
<path d="M19.4062 13.1178H19.3965C19.3965 13.1219 19.3965 13.126 19.3965 13.126C19.3965 13.126 19.3965 13.1219 19.4062 13.1178Z" fill="#56ACE0"/>
<path d="M17.954 6.12781C18.1675 6.5317 18.365 6.96662 18.5302 7.41884H19.6745C19.1668 6.93207 18.5906 6.49715 17.954 6.12781Z" fill="#56ACE0"/>
<path d="M18.8969 8.58899C19.1749 9.62804 19.3481 10.7637 19.3885 11.9615H20.4281C20.8552 11.4506 21.246 10.9432 21.6047 10.4392C21.3871 9.78337 21.0687 9.16546 20.6698 8.58899H18.8969Z" fill="#56ACE0"/>
<path d="M17.0916 17.6537H16.2816C15.3952 18.3441 14.5087 18.9758 13.6222 19.5419V20.2426C14.3717 20.1943 15.101 20.0701 15.79 19.8698C16.2937 19.2692 16.7289 18.5201 17.0916 17.6537Z" fill="#56ACE0"/>
<path d="M12.2603 8.58899H8.38807C8.08589 9.6211 7.89242 10.7603 7.84412 11.9615H12.2604V8.58899H12.2603Z" fill="#56ACE0"/>
<path d="M8.8031 7.42565H12.2644V4.85046C11.5149 4.89879 10.7856 5.02304 10.0965 5.22328C9.59694 5.82048 9.15371 6.56611 8.8031 7.42565Z" fill="#56ACE0"/>
<path d="M7.93672 18.9654C7.71913 18.5512 7.52167 18.1163 7.34845 17.6537H6.18799C6.70377 18.1508 7.28799 18.5926 7.93672 18.9654Z" fill="#56ACE0"/>
<path d="M12.2604 18.9585V17.6571H8.79102C9.14561 18.5235 9.58884 19.276 10.0965 19.8767C10.2174 19.9112 10.3383 19.9423 10.4592 19.9699C11.0475 19.6661 11.6479 19.3313 12.2604 18.9585Z" fill="#56ACE0"/>
<path d="M8.38396 16.4903H12.2603V13.1178H7.84399C7.89236 14.3156 8.08577 15.4582 8.38396 16.4903Z" fill="#56ACE0"/>
<path d="M6.9778 16.4903C6.69974 15.4513 6.53052 14.3156 6.49025 13.1178H3.95166C4.05644 14.3432 4.49562 15.4858 5.18867 16.4903H6.9778Z" fill="#56ACE0"/>
<path d="M6.20813 7.42555H7.35251C7.52174 6.96645 7.7192 6.53842 7.92869 6.13452C7.2961 6.49698 6.71182 6.9319 6.20813 7.42555Z" fill="#56ACE0"/>
<path d="M13.6183 7.42559H17.0796C16.725 6.56606 16.2858 5.82042 15.7821 5.22328C15.093 5.02651 14.3678 4.89879 13.6143 4.85046V7.42559H13.6183Z" fill="#56ACE0"/>
<path d="M6.49019 11.9545C6.5345 10.7567 6.70373 9.62444 6.98179 8.58191H5.20481C4.50771 9.57953 4.06448 10.729 3.95166 11.9545H6.49019Z" fill="#56ACE0"/>
<path d="M19.6987 17.6537H18.5382C18.3649 18.1163 18.1675 18.5547 17.95 18.9654C18.5946 18.5926 19.183 18.1508 19.6987 17.6537Z" fill="#56ACE0"/>
<path d="M13.6183 17.6537V18.0748C13.8158 17.9402 14.0172 17.7987 14.2147 17.6537H13.6183Z" fill="#56ACE0"/>
<path d="M21.1453 13.1179C20.5529 13.791 19.9042 14.4676 19.187 15.1476C19.1104 15.6067 19.0177 16.0554 18.9009 16.4869H20.6819C21.375 15.4893 21.8142 14.3398 21.9189 13.1144L21.1453 13.1179Z" fill="#56ACE0"/>
<path d="M16.6645 15.7345C17.0876 15.372 17.4987 14.9992 17.8935 14.6299C17.9661 14.1397 18.0144 13.6357 18.0386 13.1213H13.6183V16.4939H15.7458C16.0561 16.2453 16.3583 15.9933 16.6645 15.7345Z" fill="#56ACE0"/>
<path d="M17.4905 8.58899H13.6183V11.9581H18.0346C17.9862 10.7568 17.7928 9.6211 17.4905 8.58899Z" fill="#56ACE0"/>
</g>
<defs>
<clipPath id="clip0_16_410">
<rect width="24.4643" height="20.9581" fill="white" transform="translate(0.693848 2.06592)"/>
</clipPath>
</defs>
</svg>
