<svg width="27" height="30" viewBox="0 0 27 30" fill="none" xmlns="http://www.w3.org/2000/svg">
<path d="M23.0459 4.39336C20.4962 1.56023 17.106 0 13.5 0C9.89402 0 6.50389 1.56023 3.95402 4.39336C1.40416 7.22648 0 10.9934 0 15C0 18.0167 0.799137 20.9143 2.31367 23.3988L0.0363867 29.3031C-0.0344356 29.4867 0.00437695 29.7113 0.131203 29.8528C0.262775 29.9996 0.474979 30.0406 0.643465 29.9514L5.72484 27.2629C8.00814 29.0546 10.6904 30 13.5 30C17.106 30 20.4962 28.4398 23.0459 25.6066C25.5957 22.7735 27 19.0066 27 15C27 10.9934 25.5957 7.22654 23.0459 4.39336Z" fill="#20A83E"/>
<path d="M13.5 27.5C19.7132 27.5 24.75 21.9035 24.75 15C24.75 8.09643 19.7132 2.5 13.5 2.5C7.28679 2.5 2.25 8.09643 2.25 15C2.25 21.9035 7.28679 27.5 13.5 27.5Z" fill="#E5E5E5"/>
<path d="M13.5 26C18.9676 26 23.3999 21.0751 23.3999 15C23.3999 8.92486 18.9676 4 13.5 4C8.03235 4 3.59998 8.92486 3.59998 15C3.59998 21.0751 8.03235 26 13.5 26Z" fill="white"/>
<path d="M20.6925 20.0766L20.2879 17.6414C20.2544 17.4403 20.1141 17.282 19.9336 17.2419L16.7517 16.5348C16.6039 16.5021 16.4515 16.5534 16.3451 16.6716L15.0524 18.108C12.8744 17.0236 11.6655 15.6776 10.6018 13.1536L11.8904 11.7218C11.9968 11.6036 12.0429 11.4341 12.0135 11.2701L11.3771 7.73459C11.3409 7.53403 11.1985 7.37811 11.0175 7.34096L8.82578 6.89137C8.76577 6.87906 8.70396 6.88041 8.64437 6.89547C8.06567 7.0416 7.53764 7.36557 7.1174 7.83262C6.38961 8.64127 6.11149 9.82117 6.31309 11.2449C6.65154 13.6356 7.70575 16.9627 9.6506 19.1322L9.67707 19.1615C11.6283 21.321 14.6226 22.4924 16.7742 22.8685C17.0453 22.9159 17.3064 22.9394 17.5567 22.9394C18.4898 22.9394 19.2715 22.6124 19.8454 21.9748C20.2657 21.5078 20.5573 20.9211 20.6887 20.2781C20.7024 20.212 20.7036 20.1433 20.6925 20.0766Z" fill="#20A83E"/>
<path d="M18.4568 22.0563C18.2065 22.0563 17.9454 22.0328 17.6743 21.9854C15.5227 21.6093 12.5283 20.4379 10.5772 18.2784L10.5507 18.2491C8.60584 16.0796 7.55168 12.7525 7.21318 10.3618C7.03794 9.12445 7.22562 8.07152 7.75545 7.28613C7.52405 7.43643 7.30942 7.61947 7.11752 7.8327C6.38973 8.64135 6.11161 9.82125 6.31321 11.245C6.65166 13.6357 7.70588 16.9628 9.65072 19.1323L9.67719 19.1616C11.6284 21.3211 14.6227 22.4924 16.7743 22.8686C17.0454 22.916 17.3065 22.9395 17.5568 22.9395C18.4899 22.9395 19.2716 22.6124 19.8455 21.9749C19.9496 21.8592 20.0457 21.7361 20.1336 21.6067C19.6565 21.9044 19.0918 22.0563 18.4568 22.0563Z" fill="#189433"/>
</svg>
